<svg width="248" height="268" viewBox="0 0 248 268" fill="none" xmlns="http://www.w3.org/2000/svg">
<path d="M32.2084 156.721L-14.9917 142.774C-15.859 142.518 -16.6202 141.988 -17.1623 141.265C-17.7043 140.541 -17.9982 139.661 -18 138.757C-18.0018 137.852 -17.7117 136.972 -17.1725 136.246C-16.6334 135.52 -15.8743 134.987 -15.0081 134.727L32.2084 120.566C32.2084 120.566 43.4932 140.214 32.2084 156.721Z" fill="#B8223C"/>
<path d="M100.804 52.022L109.028 3.49659C109.179 2.60496 109.614 1.78597 110.268 1.16152C110.922 0.537059 111.761 0.140502 112.658 0.0309329C113.556 -0.0786367 114.465 0.10461 115.25 0.553394C116.035 1.00218 116.655 1.6925 117.016 2.52161L136.701 47.7144C136.701 47.7144 118.539 61.2597 100.804 52.022Z" fill="#B8223C"/>
<path d="M74.809 205.963L30.6411 227.679C29.8295 228.078 28.9108 228.204 28.0217 228.039C27.1326 227.874 26.3207 227.426 25.7067 226.762C25.0927 226.098 24.7096 225.253 24.6143 224.354C24.519 223.455 24.7166 222.549 25.1778 221.771L50.3167 179.368C50.3167 179.368 71.9272 186.176 74.809 205.963Z" fill="#B8223C"/>
<path d="M196.39 119.183L244.182 130.944C245.06 131.16 245.845 131.654 246.42 132.352C246.994 133.05 247.328 133.915 247.372 134.819C247.415 135.722 247.166 136.615 246.661 137.365C246.155 138.115 245.422 138.682 244.568 138.981L198.053 155.299C198.053 155.299 185.877 136.192 196.39 119.183Z" fill="#B8223C"/>
<path d="M200.207 177.655L221.965 221.803C222.364 222.614 222.491 223.533 222.327 224.422C222.163 225.311 221.715 226.123 221.052 226.738C220.389 227.353 219.545 227.737 218.645 227.833C217.746 227.929 216.84 227.732 216.062 227.272L173.635 202.173C173.635 202.173 180.422 180.556 200.207 177.655Z" fill="#B8223C"/>
<path d="M152.986 55.682L191.51 25.0516C192.218 24.4888 193.089 24.1695 193.992 24.1414C194.896 24.1134 195.785 24.378 196.526 24.8958C197.268 25.4136 197.822 26.1571 198.107 27.0154C198.392 27.8737 198.392 28.801 198.107 29.6593L182.584 76.4455C182.584 76.4455 160.019 74.4008 152.986 55.682Z" fill="#DD515D"/>
<path d="M118.066 41.4651C137.737 41.4643 156.932 47.5191 173.043 58.807C189.153 70.0949 201.398 86.0686 208.114 104.558C209.635 108.729 210.858 113.003 211.773 117.348C216.382 139.177 213.237 161.931 202.88 181.692C192.522 201.454 175.601 216.987 155.027 225.618C154.156 225.988 153.277 226.343 152.388 226.682C151.136 227.165 149.873 227.617 148.6 228.046C147.498 228.417 146.386 228.768 145.262 229.1C142.844 229.814 140.39 230.434 137.9 230.959C133.885 231.806 129.82 232.393 125.729 232.716C123.203 232.915 120.649 233.015 118.066 233.017C105.483 233.026 93.0218 230.555 81.3942 225.745C69.7665 220.936 59.2005 213.883 50.2999 204.988C41.3993 196.094 34.3387 185.533 29.5214 173.908C24.7041 162.284 22.2246 149.824 22.2246 137.241C22.2246 124.658 24.7041 112.198 29.5214 100.574C34.3387 88.9497 41.3993 78.3886 50.2999 69.4941C59.2005 60.5996 69.7665 53.5462 81.3941 48.7368C93.0218 43.9275 105.483 41.4565 118.066 41.4651Z" fill="#DD515D"/>
<path d="M178.912 85.4098L226.172 71.6654C227.04 71.4129 227.967 71.4475 228.814 71.7642C229.661 72.0808 230.383 72.6625 230.873 73.4227C231.363 74.1829 231.594 75.0809 231.532 75.9831C231.47 76.8853 231.119 77.7435 230.53 78.4298L198.433 115.842C198.433 115.842 178.326 105.397 178.912 85.4098Z" fill="#DD515D"/>
<path d="M208.114 104.558C209.635 108.729 210.857 113.003 211.773 117.348L198.43 115.843L208.114 104.558Z" fill="#B8223C"/>
<path d="M79.0524 49.7458L88.0587 64.5504L66.4242 56.5651C70.4565 53.9782 74.6778 51.6986 79.0524 49.7458Z" fill="#B8223C"/>
<path d="M60.8782 88.3908L40.2423 43.7082C39.8631 42.8872 39.7593 41.9658 39.9461 41.081C40.1329 40.1961 40.6004 39.3953 41.2791 38.7976C41.9578 38.2 42.8113 37.8374 43.7126 37.764C44.6139 37.6906 45.5149 37.9102 46.2814 38.3902L88.0603 64.5519C88.0603 64.5519 80.7298 85.9906 60.8782 88.3908Z" fill="#DD515D"/>
<path d="M153.952 207.804L155.026 225.618C154.156 225.988 153.276 226.343 152.388 226.682C151.136 227.165 149.384 227.779 148.11 228.209L145.458 238.252C143.862 238.676 142.731 238.944 141.103 239.288L145.262 229.1L153.952 207.804Z" fill="#B8223C"/>
<path d="M153.952 206.114L148.6 226.357L145.934 236.449L141.375 253.699C141.144 254.573 140.636 255.349 139.929 255.912C139.221 256.475 138.35 256.794 137.446 256.822C136.542 256.85 135.653 256.585 134.912 256.067C134.171 255.549 133.616 254.806 133.332 253.948L125.729 231.027L117.813 207.162C117.813 207.162 137.121 195.313 153.952 206.114Z" fill="#DD515D"/>
<path d="M98.533 228.293L84.9825 244.256L78.2297 252.215L66.6839 265.818C66.0988 266.507 65.3066 266.99 64.4254 267.192C63.5441 267.395 62.6209 267.308 61.7932 266.944C60.9654 266.58 60.2774 265.958 59.8315 265.172C59.3856 264.385 59.2056 263.475 59.3184 262.578L62.3312 238.618L65.4684 213.671C65.4684 213.671 87.9974 211.295 98.533 228.293Z" fill="#DD515D"/>
<path d="M177.767 138.32C177.767 103.619 149.636 75.4881 114.935 75.4881C80.234 75.4881 52.1033 103.619 52.1033 138.32C52.1033 173.021 80.234 201.151 114.935 201.151C149.636 201.151 177.767 173.021 177.767 138.32Z" fill="#DD7074"/>
<path d="M70.0789 129.395C61.6334 132.559 59.2818 144.032 61.3988 155.299C63.2889 165.359 68.8115 174.107 81.3211 183.128C102.645 198.506 142.803 198.127 153.087 171.617C163.37 145.106 135.089 140.091 121.823 156.57C108.558 173.05 84.1769 161.227 81.321 138.658C80.0461 128.582 75.1306 127.502 70.0789 129.395Z" fill="#DD515D"/>
<path d="M96.8352 120.397C94.1303 124.503 92.4122 129.179 91.8153 134.059C91.0312 140.882 92.3997 149.252 103.18 150.866C119.779 153.35 116.968 126.433 132.427 123.101C150.605 119.183 151.238 93.7587 134.704 92.0857C117.238 90.3184 102.778 111.236 96.8352 120.397Z" fill="#DD515D"/>
<path d="M149.211 117.966C146.925 120.926 145.631 124.532 145.514 128.271C145.397 132.009 146.462 135.689 148.557 138.787C149.971 140.96 152.019 142.646 154.422 143.616C156.826 144.586 159.47 144.794 161.996 144.211C177.688 141.483 167.101 113.581 158.235 112.775C154.509 112.436 151.475 114.944 149.211 117.966Z" fill="#DD515D"/>
<path d="M69.1207 107.419C67.5893 110.609 67.3259 114.261 68.3838 117.638C69.6753 121.607 72.9723 125.656 81.2478 124.053C96.2942 121.138 88.4085 97.4929 80.1261 97.4929C74.7052 97.4929 71.02 103.363 69.1207 107.419Z" fill="#DD515D"/>
<path d="M108.079 99.4919C110.161 97.6368 111.462 95.0602 111.717 92.283C111.983 89.0037 110.814 85.0573 104.308 83.7112C92.4782 81.2637 91.0359 100.856 97.0603 103.371C101.003 105.017 105.466 101.866 108.079 99.4919Z" fill="#DD515D"/>
</svg>
